# xmcd
#
# Track frame offsets: 
#        150
#        20997
#        40610
#        63727
#        80952
#        102750
#        125452
#        147487
#
# Disc length: 2245 seconds
#
# Revision: 1
# Processed by: cddbd v1.5.2PL0 Copyright (c) Steve Scherf et al.
# Submitted via: ExactAudioCopy v1.0b3
#
DISCID=7508c308
DTITLE=Tito Gomez - Las Paginas De Mi Vida
DYEAR=2001
DGENRE=Salsa
TTITLE0=Llora
TTITLE1=Secretos
TTITLE2=Llegaste De Nuevo
TTITLE3=Las Paginas De Mi Vida
TTITLE4=Muriendo En Silencio
TTITLE5=Vuelveme A Querer
TTITLE6=Te Estoy Queriendo
TTITLE7=Se Fue
EXTD=YEAR: 2001
EXTT0=
EXTT1=
EXTT2=
EXTT3=
EXTT4=
EXTT5=
EXTT6=
EXTT7=
PLAYORDER=
